<?xml version="1.0" encoding="UTF-8" standalone="no"?>
<!DOCTYPE svg PUBLIC "-//W3C//DTD SVG 1.1//EN"
 "http://www.w3.org/Graphics/SVG/1.1/DTD/svg11.dtd">
<!-- Generated by graphviz version 2.40.1 (20161225.0304)
 -->
<!-- Title: G Pages: 1 -->
<svg width="172pt" height="92pt"
 viewBox="0.00 0.00 172.00 92.00" xmlns="http://www.w3.org/2000/svg" xmlns:xlink="http://www.w3.org/1999/xlink">
<g id="graph0" class="graph" transform="scale(1 1) rotate(0) translate(4 88)">
<title>G</title>
<polygon fill="#ffffff" stroke="transparent" points="-4,4 -4,-88 168,-88 168,4 -4,4"/>
<!-- writer_0 -->
<g id="node1" class="node">
<title>writer_0</title>
<polygon fill="#d3d3d3" stroke="#000000" points="14,-49 0,-49 0,-35 14,-35 14,-49"/>
</g>
<!-- 0 -->
<g id="node4" class="node">
<title>0</title>
<ellipse fill="none" stroke="#000000" cx="57" cy="-42" rx="7" ry="7"/>
</g>
<!-- writer_0&#45;&gt;0 -->
<g id="edge1" class="edge">
<title>writer_0&#45;&gt;0</title>
<path fill="none" stroke="#000000" d="M14.3777,-42C21.848,-42 33.5895,-42 42.8589,-42"/>
<polygon fill="#000000" stroke="#000000" points="42.9158,-44.4501 49.9158,-42 42.9158,-39.5501 42.9158,-44.4501"/>
</g>
<!-- reader_10 -->
<g id="node2" class="node">
<title>reader_10</title>
<polygon fill="#d3d3d3" stroke="#000000" points="164,-84 150,-84 150,-70 164,-70 164,-84"/>
</g>
<!-- reader_12 -->
<g id="node3" class="node">
<title>reader_12</title>
<polygon fill="#d3d3d3" stroke="#000000" points="164,-14 150,-14 150,0 164,0 164,-14"/>
</g>
<!-- 10 -->
<g id="node5" class="node">
<title>10</title>
<ellipse fill="none" stroke="#000000" cx="107" cy="-77" rx="7" ry="7"/>
</g>
<!-- 0&#45;&gt;10 -->
<g id="edge2" class="edge">
<title>0&#45;&gt;10</title>
<path fill="none" stroke="#000000" stroke-dasharray="5,2" d="M62.7356,-46.0149C70.5632,-51.4943 84.7841,-61.4488 94.9967,-68.5977"/>
<polygon fill="#000000" stroke="#000000" points="93.882,-70.808 101.0216,-72.8151 96.692,-66.7937 93.882,-70.808"/>
</g>
<!-- 12 -->
<g id="node6" class="node">
<title>12</title>
<ellipse fill="none" stroke="#000000" cx="107" cy="-7" rx="7" ry="7"/>
</g>
<!-- 0&#45;&gt;12 -->
<g id="edge3" class="edge">
<title>0&#45;&gt;12</title>
<path fill="none" stroke="#000000" stroke-dasharray="5,2" d="M62.7356,-37.9851C70.5632,-32.5057 84.7841,-22.5512 94.9967,-15.4023"/>
<polygon fill="#000000" stroke="#000000" points="96.692,-17.2063 101.0216,-11.1849 93.882,-13.192 96.692,-17.2063"/>
</g>
<!-- 10&#45;&gt;reader_10 -->
<g id="edge7" class="edge">
<title>10&#45;&gt;reader_10</title>
<path fill="none" stroke="#000000" d="M114.3777,-77C121.848,-77 133.5895,-77 142.8589,-77"/>
<polygon fill="#000000" stroke="#000000" points="142.9158,-79.4501 149.9158,-77 142.9158,-74.5501 142.9158,-79.4501"/>
</g>
<!-- 33 -->
<g id="node7" class="node">
<title>33</title>
<ellipse fill="none" stroke="#000000" cx="157" cy="-42" rx="7" ry="7"/>
</g>
<!-- 10&#45;&gt;33 -->
<g id="edge4" class="edge">
<title>10&#45;&gt;33</title>
<path fill="none" stroke="#000000" d="M112.7356,-72.9851C120.5632,-67.5057 134.7841,-57.5512 144.9967,-50.4023"/>
<polygon fill="#000000" stroke="#000000" points="146.692,-52.2063 151.0216,-46.1849 143.882,-48.192 146.692,-52.2063"/>
</g>
<!-- 12&#45;&gt;reader_12 -->
<g id="edge8" class="edge">
<title>12&#45;&gt;reader_12</title>
<path fill="none" stroke="#000000" d="M114.3777,-7C121.848,-7 133.5895,-7 142.8589,-7"/>
<polygon fill="#000000" stroke="#000000" points="142.9158,-9.4501 149.9158,-7 142.9158,-4.5501 142.9158,-9.4501"/>
</g>
<!-- 12&#45;&gt;33 -->
<g id="edge5" class="edge">
<title>12&#45;&gt;33</title>
<path fill="none" stroke="#000000" d="M112.7356,-11.0149C120.5632,-16.4943 134.7841,-26.4488 144.9967,-33.5977"/>
<polygon fill="#000000" stroke="#000000" points="143.882,-35.808 151.0216,-37.8151 146.692,-31.7937 143.882,-35.808"/>
</g>
<!-- 33&#45;&gt;0 -->
<g id="edge6" class="edge">
<title>33&#45;&gt;0</title>
<path fill="none" stroke="#000000" d="M142.6861,-42C123.6638,-42 90.251,-42 71.2573,-42"/>
<polygon fill="#000000" stroke="#000000" points="149.8734,-44.45 142.8734,-42.0001 149.8734,-39.55 149.8734,-44.45"/>
<polygon fill="#000000" stroke="#000000" points="64.1918,-39.55 71.1918,-42.0001 64.1917,-44.45 64.1918,-39.55"/>
</g>
</g>
</svg>